<svg width="18" height="18" viewBox="0 0 18 18" fill="none" xmlns="http://www.w3.org/2000/svg">
<path d="M17.6996 0.300296C17.2992 -0.100099 16.6501 -0.100099 16.2497 0.300296L8.99999 7.55L1.75033 0.300311C1.34994 -0.100083 0.700781 -0.100083 0.300391 0.300311C-0.0999998 0.700705 -0.0999998 1.34987 0.300391 1.75026L7.55005 8.99996L0.300293 16.2497C-0.100098 16.6501 -0.100098 17.2993 0.300293 17.6997C0.700685 18.1001 1.34985 18.1001 1.75024 17.6997L8.99999 10.4499L16.2498 17.6997C16.6502 18.1001 17.2993 18.1001 17.6997 17.6997C18.1001 17.2993 18.1001 16.6501 17.6997 16.2498L10.4499 8.99996L17.6996 1.75025C18.1 1.34985 18.1 0.70069 17.6996 0.300296Z" fill="#E84039"/>
</svg>
