<svg width="16" height="16" viewBox="0 0 16 16" fill="none" xmlns="http://www.w3.org/2000/svg">
<path fill-rule="evenodd" clip-rule="evenodd" d="M3.03356 8.37228C3.03356 8.37228 5.05755 10.6128 6.36756 12.063C6.78157 12.5216 7.37711 12.7842 8.00268 12.7842C8.62824 12.7842 9.22378 12.5216 9.63803 12.063L12.9667 8.3782C13.2324 8.08397 13.2038 7.63432 12.9031 7.37444C12.6022 7.11457 12.1421 7.14256 11.8766 7.43657L8.54795 11.1214C8.40971 11.2743 8.2112 11.3619 8.00268 11.3619C7.79416 11.3619 7.59564 11.2743 7.45764 11.1214C6.14763 9.67118 4.12363 7.43065 4.12363 7.43065C3.85786 7.13642 3.398 7.10866 3.09709 7.36853C2.79618 7.6284 2.76779 8.07805 3.03356 8.37228Z" fill="#428BCA"/>
<path fill-rule="evenodd" clip-rule="evenodd" d="M0 9.59995V13.8667C0.000232724 15.0449 0.976975 16 2.18202 16H13.8182C15.0233 16 16 15.0449 16 13.8667V9.59995C16 9.20742 15.6742 8.88884 15.2727 8.88884C14.8713 8.88884 14.5455 9.20742 14.5455 9.59995V13.8667C14.5455 14.2594 14.2199 14.5778 13.8182 14.5778H2.18202C1.78034 14.5778 1.45476 14.2594 1.45452 13.8667V9.59995C1.45452 9.20742 1.12871 8.88884 0.727262 8.88884C0.326046 8.88884 0 9.20742 0 9.59995Z" fill="#428BCA"/>
<path fill-rule="evenodd" clip-rule="evenodd" d="M7.27285 0.710889V12.089C7.27285 12.4813 7.59867 12.8001 8.00012 12.8001C8.40156 12.7999 8.72738 12.4813 8.72738 12.0887V0.711116C8.72738 0.31858 8.40156 1.21743e-07 8.00012 1.21743e-07C7.59867 -0.000227435 7.27285 0.31858 7.27285 0.710889Z" fill="#428BCA"/>
</svg>
