<svg width="13" height="18" viewBox="0 0 13 18" fill="none" xmlns="http://www.w3.org/2000/svg">
<path d="M12.8823 2.21684L11.277 4.43368L12.8426 6.65053C12.9814 6.85895 13.0012 7.12421 12.8823 7.35158C12.7634 7.57895 12.5255 7.71158 12.2679 7.71158H5.52947V14.9116C5.52947 15.2716 5.21237 15.5747 4.83581 15.5747C4.45925 15.5747 4.14215 15.2905 4.14215 14.9116V0.663158C4.14215 0.303158 4.49889 0 4.87545 0C5.25201 0 5.56911 0.284211 5.56911 0.663158V1.15579H12.3075C12.5652 1.15579 12.803 1.28842 12.9219 1.51579C13.0408 1.74316 13.021 2.00842 12.8823 2.21684Z" fill="#E84039"/>
<path d="M6.5006 13.794V13.7934C6.5006 13.3311 6.97712 13.005 7.43508 13.1535C8.81224 13.6 9.68799 14.4151 9.67162 15.3853C9.67162 16.8821 7.59064 18 4.83581 18C2.08098 18 -1.98189e-08 16.8632 0 15.3853C0 14.4145 0.893191 13.599 2.27698 13.1527C2.73486 13.0049 3.21066 13.3308 3.21066 13.7928C3.21066 14.0843 3.01374 14.3427 2.72403 14.4333C1.89021 14.6941 1.40714 15.0805 1.40714 15.3853C1.40714 15.8968 2.77464 16.6547 4.85563 16.6547C6.93661 16.6547 8.30412 15.8968 8.30412 15.3853C8.30412 15.0962 7.81992 14.6981 6.98431 14.4336C6.69602 14.3423 6.5006 14.0843 6.5006 13.794Z" fill="#E84039"/>
</svg>
