<svg width="22" height="18" viewBox="0 0 22 18" fill="none" xmlns="http://www.w3.org/2000/svg">
<path d="M0 1.125C0 0.50368 0.492487 0 1.1 0H20.9C21.5075 0 22 0.50368 22 1.125C22 1.74632 21.5075 2.25 20.9 2.25H1.1C0.492487 2.25 0 1.74632 0 1.125Z" fill="#E84039"/>
<path d="M0 9C0 8.37868 0.492487 7.875 1.1 7.875H20.9C21.5075 7.875 22 8.37868 22 9C22 9.62132 21.5075 10.125 20.9 10.125H1.1C0.492487 10.125 0 9.62132 0 9Z" fill="#E84039"/>
<path d="M1.1 15.75C0.492487 15.75 0 16.2537 0 16.875C0 17.4963 0.492487 18 1.1 18H20.9C21.5075 18 22 17.4963 22 16.875C22 16.2537 21.5075 15.75 20.9 15.75H1.1Z" fill="#E84039"/>
</svg>
