<svg width="15" height="17" viewBox="0 0 15 17" fill="none" xmlns="http://www.w3.org/2000/svg">
<path fill-rule="evenodd" clip-rule="evenodd" d="M15 5.73467C15 5.09913 14.7514 4.48974 14.31 4.0399C13.4846 3.20123 11.8526 1.54133 11.028 0.701795C10.5857 0.252821 9.98657 0 9.36171 0C8.24314 0 6.00171 0 4.07143 0C2.99143 0 1.956 0.435897 1.19229 1.21267C0.428571 1.98944 0 3.04256 0 4.14103V12.859C0 15.1457 1.82314 17 4.07143 17H10.9286C13.1769 17 15 15.1457 15 12.859C15 10.3404 15 7.14349 15 5.73467ZM9.42857 1.30944C9.40629 1.30856 9.384 1.30769 9.36171 1.30769C8.24314 1.30769 6.00171 1.30769 4.07143 1.30769C3.33257 1.30769 2.62371 1.60585 2.10171 2.13764C1.57886 2.66856 1.28571 3.38954 1.28571 4.14103V12.859C1.28571 14.4238 2.53286 15.6923 4.07143 15.6923H10.9286C12.4671 15.6923 13.7143 14.4238 13.7143 12.859C13.7143 10.3404 13.7143 7.14349 13.7143 5.73467C13.7143 5.712 13.7134 5.68933 13.7126 5.66667H11.7857C11.1609 5.66667 10.5609 5.41385 10.1186 4.96487C9.67714 4.51503 9.42857 3.90477 9.42857 3.26923V1.30944ZM12.8049 4.35897L10.7143 2.23267V3.26923C10.7143 3.55867 10.8274 3.83503 11.028 4.0399C11.2294 4.2439 11.5011 4.35897 11.7857 4.35897H12.8049Z" fill="#428BCA"/>
<path fill-rule="evenodd" clip-rule="evenodd" d="M7.51543 6.10256C7.57457 6.10431 7.632 6.1139 7.686 6.13046L7.68771 6.13133C7.78543 6.16097 7.87714 6.2159 7.95429 6.29436L9.66857 8.03795C9.91971 8.29251 9.91971 8.70749 9.66857 8.96205C9.41829 9.21749 9.01029 9.21749 8.76 8.96205L8.14286 8.33523V11.1154C8.14286 11.4763 7.85486 11.7692 7.5 11.7692C7.14514 11.7692 6.85714 11.4763 6.85714 11.1154V8.33523L6.24 8.96205C5.98971 9.21749 5.58171 9.21749 5.33143 8.96205C5.08029 8.70749 5.08029 8.29251 5.33143 8.03795L7.04571 6.29436C7.12286 6.2159 7.21457 6.16097 7.31229 6.13133L7.314 6.13046C7.368 6.1139 7.42543 6.10431 7.48457 6.10256H7.51543Z" fill="#428BCA"/>
</svg>
