<svg width="44" height="31" viewBox="0 0 44 31" fill="none" xmlns="http://www.w3.org/2000/svg">
<path d="M42.9266 4.80188C42.4214 2.92426 40.941 1.44424 39.0637 0.93864C35.6339 0 21.9144 0 21.9144 0C21.9144 0 8.19529 0 4.76543 0.90286C2.92426 1.40813 1.40779 2.9246 0.902525 4.80188C0 8.23141 0 15.3439 0 15.3439C0 15.3439 0 22.4922 0.902525 25.886C1.40813 27.7633 2.88815 29.2436 4.76576 29.7492C8.23141 30.6879 21.9147 30.6879 21.9147 30.6879C21.9147 30.6879 35.6339 30.6879 39.0637 29.785C40.9413 29.2797 42.4214 27.7994 42.927 25.9221C43.8295 22.4922 43.8295 15.38 43.8295 15.38C43.8295 15.38 43.8656 8.23141 42.9266 4.80188Z" fill="#FF0000"/>
<path d="M17.5461 21.9148L28.9546 15.344L17.5461 8.77319V21.9148Z" fill="white"/>
</svg>
