<svg width="32" height="32" viewBox="0 0 32 32" fill="none" xmlns="http://www.w3.org/2000/svg">
<path fill-rule="evenodd" clip-rule="evenodd" d="M32 16C32 24.8366 24.8366 32 16 32C7.16344 32 0 24.8366 0 16C0 7.16344 7.16344 0 16 0C24.8366 0 32 7.16344 32 16ZM22.748 9.70537L7.32135 15.6534C6.26401 16.0667 6.28268 16.652 7.14001 16.924L11.0893 18.156L20.2507 12.388C20.676 12.1054 21.0707 12.2654 20.748 12.5494L13.3347 19.2467L13.0507 23.3174C13.464 23.3174 13.644 23.1374 13.8573 22.924L15.7867 21.0654L19.7867 24.0134C20.516 24.4267 21.0373 24.2134 21.232 23.336L23.8587 10.9614L23.8573 10.9627C24.0893 9.88003 23.464 9.4467 22.748 9.70537Z" fill="#039BE5"/>
</svg>
