<svg width="32" height="32" viewBox="0 0 32 32" fill="none" xmlns="http://www.w3.org/2000/svg">
<path d="M16 0C12.8355 0 9.74207 0.938384 7.11088 2.69649C4.4797 4.45459 2.42894 6.95345 1.21793 9.87707C0.00693251 12.8007 -0.309921 16.0177 0.307443 19.1214C0.924806 22.2251 2.44866 25.0761 4.6863 27.3137C6.92394 29.5513 9.77487 31.0752 12.8786 31.6926C15.9823 32.3099 19.1993 31.9931 22.1229 30.7821C25.0466 29.5711 27.5454 27.5203 29.3035 24.8891C31.0616 22.2579 32 19.1645 32 16C32 11.7565 30.3143 7.68687 27.3137 4.68629C24.3131 1.68571 20.2435 0 16 0ZM23.379 20.9937C23.0042 21.0463 21.1832 20.9937 21.0884 20.9937C20.6176 20.9985 20.1638 20.8177 19.8253 20.4905C19.44 20.12 19.0926 19.7137 18.7242 19.3263C18.6129 19.209 18.4925 19.1006 18.3642 19.0021C18.0632 18.7705 17.7663 18.8232 17.6253 19.1768C17.5152 19.5603 17.4391 19.9527 17.3979 20.3495C17.3949 20.4324 17.3756 20.514 17.3411 20.5895C17.3065 20.665 17.2575 20.7329 17.1967 20.7894C17.1359 20.8459 17.0645 20.8899 16.9867 20.9188C16.9089 20.9477 16.8261 20.961 16.7432 20.9579C16.4947 20.9705 16.2463 20.9747 16 20.9579C15.1038 20.9543 14.2214 20.7378 13.4253 20.3263C12.5654 19.8458 11.816 19.1903 11.2253 18.4021C10.2797 17.1545 9.46294 15.8143 8.78738 14.4021C8.75159 14.3326 8.04211 12.8232 8.02527 12.7516C7.98317 12.6534 7.97997 12.5429 8.01633 12.4424C8.05268 12.3419 8.12587 12.259 8.22106 12.2105C8.34738 12.1621 10.6863 12.2105 10.7242 12.2105C10.8983 12.2081 11.0685 12.2616 11.2099 12.3631C11.3513 12.4647 11.4563 12.609 11.5095 12.7747C11.9421 13.8801 12.5328 14.9169 13.2632 15.8526C13.3656 15.9772 13.4854 16.0864 13.619 16.1768C13.6534 16.2102 13.696 16.2337 13.7426 16.2451C13.7891 16.2565 13.8378 16.2552 13.8837 16.2415C13.9296 16.2278 13.971 16.2021 14.0037 16.167C14.0363 16.132 14.059 16.0889 14.0695 16.0421C14.1622 15.737 14.2166 15.4216 14.2316 15.1032C14.2442 14.4716 14.2316 14.0505 14.1958 13.4189C14.2085 13.2037 14.1359 12.9922 13.9936 12.8302C13.8513 12.6682 13.6509 12.5688 13.4358 12.5537C13.2505 12.5221 13.2253 12.3705 13.3537 12.2189C13.6 11.9053 13.9411 11.8547 14.3116 11.8358C14.8716 11.8042 15.4337 11.8358 15.9958 11.8358H16.1179C16.3647 11.8352 16.6109 11.8599 16.8526 11.9095C16.994 11.9384 17.1222 12.0123 17.2182 12.12C17.3142 12.2278 17.3728 12.3636 17.3853 12.5074C17.4136 12.6665 17.4263 12.8279 17.4232 12.9895C17.4084 13.68 17.3747 14.3684 17.3663 15.0568C17.3612 15.3296 17.3859 15.6021 17.44 15.8695C17.5221 16.2358 17.7726 16.3284 18.0295 16.0632C18.3496 15.7189 18.6431 15.3508 18.9074 14.9621C19.3823 14.2561 19.7737 13.4973 20.0737 12.7011C20.2358 12.2926 20.36 12.2021 20.8 12.2021H23.2821C23.4301 12.1998 23.5775 12.219 23.72 12.2589C23.7702 12.2723 23.8171 12.2959 23.8578 12.3281C23.8985 12.3604 23.9321 12.4007 23.9566 12.4465C23.9811 12.4923 23.9959 12.5426 24.0001 12.5944C24.0043 12.6461 23.9978 12.6982 23.9811 12.7474C23.8364 13.2757 23.5873 13.7696 23.2484 14.2C22.7432 14.9158 22.2126 15.6126 21.6947 16.3179C21.6288 16.4078 21.569 16.502 21.5158 16.6C21.3221 16.9516 21.3368 17.1474 21.6168 17.4421C22.0674 17.9074 22.5495 18.3411 22.9832 18.8168C23.3026 19.1647 23.5913 19.5394 23.8463 19.9368C24.1663 20.4379 23.9705 20.9095 23.379 20.9937Z" fill="#2E77A4"/>
</svg>
