<svg width="32" height="32" viewBox="0 0 32 32" fill="none" xmlns="http://www.w3.org/2000/svg">
<path d="M18.219 16.0064L13.7811 18.5811V13.419L18.219 16.0064Z" fill="#F70717"/>
<path fill-rule="evenodd" clip-rule="evenodd" d="M7.11088 2.69649C9.74207 0.938383 12.8355 0 16 0C20.2435 0 24.3131 1.68571 27.3137 4.68629C30.3143 7.68687 32 11.7565 32 16C32 19.1645 31.0616 22.2579 29.3035 24.8891C27.5454 27.5203 25.0466 29.5711 22.1229 30.7821C19.1993 31.9931 15.9823 32.3099 12.8786 31.6926C9.77486 31.0752 6.92394 29.5513 4.6863 27.3137C2.44866 25.0761 0.924806 22.2251 0.307443 19.1214C-0.309921 16.0177 0.00693248 12.8007 1.21793 9.87706C2.42894 6.95345 4.4797 4.45459 7.11088 2.69649ZM24.1792 20.0512C24.3391 19.6645 24.4213 19.25 24.4211 18.8316V13.1684C24.4213 12.7499 24.3391 12.3355 24.1792 11.9488C24.0192 11.5621 23.7847 11.2107 23.4889 10.9147C23.1931 10.6187 22.8418 10.3839 22.4552 10.2237C22.0686 10.0635 21.6543 9.98105 21.2358 9.98105H10.7642C10.3457 9.98105 9.93137 10.0635 9.54478 10.2237C9.15819 10.3839 8.80696 10.6187 8.51115 10.9147C8.21534 11.2107 7.98076 11.5621 7.82081 11.9488C7.66086 12.3355 7.57868 12.7499 7.57895 13.1684V18.8316C7.57868 19.25 7.66086 19.6645 7.82081 20.0512C7.98076 20.4379 8.21534 20.7893 8.51115 21.0853C8.80696 21.3813 9.15819 21.6161 9.54478 21.7763C9.93137 21.9365 10.3457 22.0189 10.7642 22.0189H21.2358C21.6543 22.0189 22.0686 21.9365 22.4552 21.7763C22.8418 21.6161 23.1931 21.3813 23.4889 21.0853C23.7847 20.7893 24.0192 20.4379 24.1792 20.0512Z" fill="#F70717"/>
</svg>
