<svg width="185" height="40" viewBox="0 0 185 40" fill="none" xmlns="http://www.w3.org/2000/svg">
<g clip-path="url(#clip0_1_1556)">
<path d="M178.677 0.833496H149.487V39.1668H178.677C181.703 39.1668 184.174 36.6776 184.174 33.6382V6.36208C184.174 3.31882 181.699 0.833496 178.677 0.833496Z" fill="white"/>
<path d="M149.425 0.829102H6.30269C3.28567 0.829102 0.821777 3.3191 0.821777 6.3594V33.6401C0.821777 36.6843 3.28955 39.1704 6.30269 39.1704H149.425V0.829102Z" fill="#E84039"/>
<path fill-rule="evenodd" clip-rule="evenodd" d="M0 6.35964C0 2.86169 2.83411 0 6.30862 0H178.691C182.161 0 185 2.85702 185 6.35964V33.6403C185 37.1383 182.166 40 178.691 40H6.30862C2.83873 40 0 37.143 0 33.6403V6.35964ZM6.30862 1.6587C3.74358 1.6587 1.64539 3.777 1.64539 6.35964V33.6403C1.64539 36.2262 3.7467 38.3413 6.30862 38.3413H178.691C181.256 38.3413 183.355 36.223 183.355 33.6403V6.35964C183.355 3.77387 181.253 1.6587 178.691 1.6587H6.30862Z" fill="#E84039"/>
<path d="M13.6483 15.2739V25.8311H11.1728V15.2739H7.86182V13.0454H16.9554V15.2739H13.6444H13.6483Z" fill="#FEFEFE"/>
<path d="M24.5675 25.0934C24.053 25.6319 23.233 25.9364 22.324 25.9364C21.415 25.9364 20.6685 25.6866 20.0807 25.0036V29.2577H17.7676V16.4759H20.011V17.3541C20.6531 16.6359 21.3261 16.3667 22.324 16.3667C23.233 16.3667 24.0492 16.6711 24.5675 17.2097C25.4571 18.1269 25.5268 19.5787 25.5268 21.1437C25.5268 22.7088 25.4571 24.1762 24.5675 25.0934ZM21.651 18.4664C20.2624 18.4664 20.0845 19.6334 20.0845 21.1437C20.0845 22.6541 20.2624 23.8367 21.651 23.8367C23.0396 23.8367 23.2176 22.6502 23.2176 21.1437C23.2176 19.6373 23.0396 18.4664 21.651 18.4664Z" fill="#FEFEFE"/>
<path d="M31.0696 27.3377C30.5706 28.6841 29.7892 29.2578 28.3814 29.2578H27.4724V27.1581H28.0061C28.683 27.1581 28.9306 26.9786 29.1626 26.3151L29.5534 25.1677L26.3855 16.4761H28.8223L30.7446 22.2562L32.5936 16.4761H35.0304L31.0619 27.3377H31.0696Z" fill="#FEFEFE"/>
<path d="M37.0764 24.4845C36.5233 23.6064 36.3298 22.1155 36.3298 20.3709C36.3298 15.988 36.6315 14.9109 37.8074 13.9781C38.9639 13.0805 40.635 12.9555 43.3773 12.936V14.946C42.2014 15.0358 40.6388 14.9265 39.5867 15.4845C38.7319 15.9334 38.4108 16.5071 38.4108 17.639C38.7667 17.0301 39.7105 16.5618 40.7239 16.5618C41.8804 16.5618 42.4838 16.8505 43.0021 17.315C43.8222 18.0878 44.178 19.5045 44.178 21.1046C44.178 22.9741 43.8415 24.0122 43.0408 24.8591C42.3832 25.5578 41.4046 25.9363 40.3023 25.9363C38.933 25.9363 37.703 25.468 37.0802 24.4805L37.0764 24.4845ZM41.3814 23.3722C41.6831 22.9936 41.8611 22.2599 41.8611 21.1632C41.8611 20.1406 41.7025 19.4225 41.3969 19.044C41.13 18.6849 40.72 18.5405 40.2559 18.5405C39.7917 18.5405 39.3856 18.6654 39.0993 19.0245C38.8131 19.403 38.6351 20.1211 38.6351 21.1436C38.6351 22.2911 38.8131 23.0092 39.1496 23.3878C39.4165 23.7117 39.8072 23.8366 40.252 23.8366C40.6968 23.8366 41.0875 23.7117 41.3737 23.3683L41.3814 23.3722Z" fill="#FEFEFE"/>
<path d="M51.0941 25.831V25.0231C50.4714 25.6515 49.8834 25.9208 48.8159 25.9208C47.7483 25.9208 46.9825 25.6319 46.4487 25.0934C45.9497 24.5743 45.6829 23.8172 45.6829 22.9937C45.6829 21.5028 46.6962 20.2812 48.8855 20.2812H51.04V19.8129C51.04 18.7904 50.541 18.3415 49.3149 18.3415C48.4794 18.3415 48.0346 18.5757 47.5356 19.1494L46.0774 17.6936C46.9864 16.6867 47.8566 16.3667 49.4038 16.3667C52.0185 16.3667 53.353 17.479 53.353 19.6684V25.8271H51.0941V25.831ZM51.04 21.8814H49.28C48.3556 21.8814 47.9108 22.2599 47.9108 22.9585C47.9108 23.6064 48.3556 24.0162 49.3149 24.0162C49.8834 24.0162 50.2935 23.946 50.6841 23.5674C50.951 23.3332 51.04 22.9742 51.04 22.3809V21.8774V21.8814Z" fill="#FEFEFE"/>
<path d="M65.1851 25.8312V22.0767H62.2144V25.8312H59.8821V16.4761H62.2144V20.0121H65.1851V16.4761H67.5175V25.8312H65.1851Z" fill="#FEFEFE"/>
<path d="M74.708 25.831V25.0231C74.0852 25.6515 73.4973 25.9208 72.4297 25.9208C71.3621 25.9208 70.5963 25.6319 70.0625 25.0934C69.5636 24.5743 69.2966 23.8172 69.2966 22.9937C69.2966 21.5028 70.3101 20.2812 72.4994 20.2812H74.6538V19.8129C74.6538 18.7904 74.1549 18.3415 72.9287 18.3415C72.0932 18.3415 71.6484 18.5757 71.1494 19.1494L69.6912 17.6936C70.6001 16.6867 71.4705 16.3667 73.0176 16.3667C75.6324 16.3667 76.9669 17.479 76.9669 19.6684V25.8271H74.708V25.831ZM74.6538 21.8814H72.8939C71.9694 21.8814 71.5246 22.2599 71.5246 22.9585C71.5246 23.6064 71.9694 24.0162 72.9287 24.0162C73.4973 24.0162 73.9073 23.946 74.2979 23.5674C74.5648 23.3332 74.6538 22.9742 74.6538 22.3809V21.8774V21.8814Z" fill="#FEFEFE"/>
<path d="M87.1978 25.9364C85.3487 25.9364 83.051 24.9294 83.051 21.1437C83.051 17.358 85.3454 16.3667 87.1978 16.3667C88.478 16.3667 89.441 16.7609 90.2569 17.6234L88.691 19.204C88.2112 18.6849 87.8016 18.4664 87.1937 18.4664C86.6412 18.4664 86.215 18.6654 85.8789 19.0753C85.5229 19.524 85.3644 20.1524 85.3644 21.1399C85.3644 22.1273 85.5229 22.7751 85.8789 23.2239C86.215 23.6376 86.6445 23.8328 87.1937 23.8328C87.7974 23.8328 88.2071 23.6181 88.691 23.0951L90.2569 24.6563C89.4377 25.5188 88.478 25.9325 87.1978 25.9325V25.9364Z" fill="#FEFEFE"/>
<path d="M91.9475 25.8312V16.4761H94.2798V25.8312H91.9475ZM97.4826 25.8312L94.2997 20.9292L97.3431 16.4761H100.047L96.7749 20.8394L100.263 25.8312H97.4826Z" fill="#FEFEFE"/>
<path d="M107.466 25.8312V18.5407H105.242V20.7848C105.242 24.7891 104.155 25.8312 102.271 25.8312H101.168V23.7666H101.455C102.236 23.7666 103.002 23.6222 103.002 20.2657V16.4761H109.783V25.8312H107.466Z" fill="#FEFEFE"/>
<path d="M116.977 25.831V25.0231C116.354 25.6515 115.766 25.9208 114.699 25.9208C113.631 25.9208 112.866 25.6319 112.332 25.0934C111.832 24.5743 111.566 23.8172 111.566 22.9937C111.566 21.5028 112.579 20.2812 114.768 20.2812H116.923V19.8129C116.923 18.7904 116.424 18.3415 115.198 18.3415C114.362 18.3415 113.918 18.5757 113.419 19.1494L111.96 17.6936C112.87 16.6867 113.739 16.3667 115.287 16.3667C117.902 16.3667 119.236 17.479 119.236 19.6684V25.8271H116.977V25.831ZM116.923 21.8814H115.163C114.238 21.8814 113.794 22.2599 113.794 22.9585C113.794 23.6064 114.238 24.0162 115.198 24.0162C115.766 24.0162 116.177 23.946 116.567 23.5674C116.834 23.3332 116.923 22.9742 116.923 22.3809V21.8774V21.8814Z" fill="#FEFEFE"/>
<path d="M128.24 28.1299V25.8312H122.937V28.1299H120.749V23.7666H121.692C122.172 22.9041 122.601 21.7722 122.601 19.333V16.4761H129.258V23.7666H130.434V28.1299H128.24ZM126.941 18.5407H124.825V19.7622C124.825 21.6473 124.578 22.8142 124.113 23.7666H126.941V18.5407Z" fill="#FEFEFE"/>
<path d="M133.938 21.8814C133.938 23.1029 134.65 23.9654 135.969 23.9654C136.983 23.9654 137.481 23.661 138.069 23.0874L139.473 24.4689C138.529 25.4369 137.624 25.9403 135.949 25.9403C133.761 25.9403 131.66 24.9334 131.66 21.1476C131.66 18.0956 133.296 16.3706 135.698 16.3706C138.278 16.3706 139.736 18.2361 139.736 20.8939V21.8814H133.934H133.938ZM137.249 19.2782C137.002 18.7201 136.484 18.3103 135.702 18.3103C134.921 18.3103 134.402 18.724 134.155 19.2782C133.996 19.6177 133.957 19.8714 133.942 20.2851H137.466C137.447 19.8714 137.412 19.6216 137.253 19.2782H137.249Z" fill="#FEFEFE"/>
<path d="M164.232 25.0934C163.718 25.6319 162.898 25.9364 161.989 25.9364C161.08 25.9364 160.333 25.6866 159.745 25.0036V29.2577H157.433V16.4759H159.676V17.3541C160.317 16.6359 160.991 16.3667 161.989 16.3667C162.898 16.3667 163.714 16.6711 164.232 17.2097C165.122 18.1269 165.191 19.5787 165.191 21.1438C165.191 22.7088 165.122 24.1762 164.232 25.0934ZM161.316 18.4664C159.927 18.4664 159.749 19.6334 159.749 21.1438C159.749 22.6541 159.927 23.8367 161.316 23.8367C162.704 23.8367 162.882 22.6502 162.882 21.1438C162.882 19.6373 162.704 18.4664 161.316 18.4664Z" fill="#E84039"/>
<path d="M170.734 27.3377C170.235 28.6842 169.454 29.2578 168.046 29.2578H167.137V27.1581H167.671C168.347 27.1581 168.595 26.9786 168.827 26.3151L169.218 25.1677L166.05 16.4761H168.487L170.409 22.2562L172.262 16.4761H174.699L170.73 27.3377H170.734Z" fill="#E84039"/>
<path d="M149.425 26.1898C150.996 26.1898 152.268 24.9055 152.268 23.3212C152.268 21.737 150.996 20.4526 149.425 20.4526C147.855 20.4526 146.583 21.737 146.583 23.3212C146.583 24.9055 147.855 26.1898 149.425 26.1898Z" fill="white"/>
<path fill-rule="evenodd" clip-rule="evenodd" d="M149.425 21.3661C148.355 21.3661 147.488 22.2415 147.488 23.3214C147.488 24.4013 148.355 25.2767 149.425 25.2767C150.496 25.2767 151.363 24.4013 151.363 23.3214C151.363 22.2415 150.496 21.3661 149.425 21.3661ZM145.677 23.3214C145.677 21.2327 147.356 19.5396 149.425 19.5396C151.495 19.5396 153.173 21.2327 153.173 23.3214C153.173 25.4101 151.495 27.1032 149.425 27.1032C147.356 27.1032 145.677 25.4101 145.677 23.3214Z" fill="#E84039"/>
</g>
<defs>
<clipPath id="clip0_1_1556">
<rect width="185" height="40" fill="white"/>
</clipPath>
</defs>
</svg>
