<svg width="149" height="32" viewBox="0 0 149 32" fill="none" xmlns="http://www.w3.org/2000/svg">
<g clip-path="url(#clip0_1_496)">
<path d="M143.907 0.666992H120.397V31.3337H143.907C146.345 31.3337 148.335 29.3423 148.335 26.9108V5.08986C148.335 2.65525 146.341 0.666992 143.907 0.666992Z" fill="#1C1F27"/>
<path d="M120.348 0.663086H5.07629C2.64636 0.663086 0.661926 2.65509 0.661926 5.08732V26.9119C0.661926 29.3473 2.64948 31.3361 5.07629 31.3361H120.348V0.663086Z" fill="#3B4254"/>
<path fill-rule="evenodd" clip-rule="evenodd" d="M0 5.08771C0 2.28935 2.28261 0 5.081 0H143.919C146.714 0 149 2.28562 149 5.08771V26.9123C149 29.7107 146.717 32 143.919 32H5.081C2.28633 32 0 29.7144 0 26.9123V5.08771ZM5.081 1.32696C3.0151 1.32696 1.32521 3.0216 1.32521 5.08771V26.9123C1.32521 28.9809 3.01762 30.6731 5.081 30.6731H143.919C145.985 30.6731 147.675 28.9784 147.675 26.9123V5.08771C147.675 3.01909 145.982 1.32696 143.919 1.32696H5.081Z" fill="#3B4254"/>
<path d="M10.9923 12.2193V20.6651H8.99852V12.2193H6.33185V10.4365H13.6559V12.2193H10.9892H10.9923Z" fill="#FEFEFE"/>
<path d="M19.7868 20.0751C19.3725 20.5059 18.712 20.7495 17.9799 20.7495C17.2478 20.7495 16.6466 20.5497 16.1731 20.0033V23.4065H14.3101V13.1811H16.117V13.8837C16.6341 13.3092 17.1762 13.0938 17.9799 13.0938C18.712 13.0938 19.3693 13.3373 19.7868 13.7682C20.5033 14.5019 20.5594 15.6633 20.5594 16.9153C20.5594 18.1674 20.5033 19.3413 19.7868 20.0751ZM17.4379 14.7735C16.3195 14.7735 16.1761 15.7071 16.1761 16.9153C16.1761 18.1237 16.3195 19.0698 17.4379 19.0698C18.5562 19.0698 18.6996 18.1205 18.6996 16.9153C18.6996 15.7102 18.5562 14.7735 17.4379 14.7735Z" fill="#FEFEFE"/>
<path d="M25.0235 21.8699C24.6217 22.9471 23.9924 23.4061 22.8584 23.4061H22.1264V21.7263H22.5563C23.1014 21.7263 23.3008 21.5827 23.4877 21.0519L23.8024 20.1339L21.251 13.1807H23.2136L24.7619 17.8047L26.251 13.1807H28.2136L25.0174 21.8699H25.0235Z" fill="#FEFEFE"/>
<path d="M29.8616 19.5874C29.4161 18.8849 29.2603 17.6922 29.2603 16.2965C29.2603 12.7902 29.5033 11.9285 30.4504 11.1823C31.3818 10.4642 32.7277 10.3642 34.9364 10.3486V11.9566C33.9893 12.0284 32.7308 11.941 31.8834 12.3874C31.1949 12.7465 30.9364 13.2055 30.9364 14.111C31.223 13.6239 31.9831 13.2492 32.7993 13.2492C33.7308 13.2492 34.2168 13.4802 34.6342 13.8518C35.2947 14.47 35.5812 15.6034 35.5812 16.8835C35.5812 18.3791 35.3102 19.2096 34.6654 19.8871C34.1357 20.446 33.3476 20.7488 32.4598 20.7488C31.357 20.7488 30.3662 20.3742 29.8647 19.5842L29.8616 19.5874ZM33.3289 18.6976C33.5719 18.3947 33.7152 17.8077 33.7152 16.9304C33.7152 16.1123 33.5875 15.5378 33.3414 15.235C33.1264 14.9477 32.7962 14.8322 32.4224 14.8322C32.0485 14.8322 31.7214 14.9321 31.4909 15.2194C31.2604 15.5222 31.117 16.0967 31.117 16.9147C31.117 17.8327 31.2604 18.4072 31.5314 18.71C31.7464 18.9692 32.061 19.0691 32.4192 19.0691C32.7775 19.0691 33.0921 18.9692 33.3227 18.6944L33.3289 18.6976Z" fill="#FEFEFE"/>
<path d="M41.1514 20.6652V20.0189C40.6499 20.5216 40.1763 20.737 39.3165 20.737C38.4567 20.737 37.8399 20.506 37.41 20.0751C37.0081 19.6598 36.7932 19.0542 36.7932 18.3954C36.7932 17.2026 37.6093 16.2253 39.3726 16.2253H41.1078V15.8507C41.1078 15.0327 40.7059 14.6736 39.7184 14.6736C39.0455 14.6736 38.6872 14.8609 38.2853 15.3199L37.1109 14.1553C37.843 13.3498 38.5439 13.0938 39.79 13.0938C41.8959 13.0938 42.9707 13.9836 42.9707 15.7351V20.6621H41.1514V20.6652ZM41.1078 17.5055H39.6903C38.9458 17.5055 38.5875 17.8084 38.5875 18.3672C38.5875 18.8856 38.9458 19.2133 39.7184 19.2133C40.1763 19.2133 40.5066 19.1572 40.8212 18.8543C41.0361 18.667 41.1078 18.3798 41.1078 17.9052V17.5023V17.5055Z" fill="#FEFEFE"/>
<path d="M52.5004 20.6647V17.6611H50.1078V20.6647H48.2294V13.1807H50.1078V16.0095H52.5004V13.1807H54.3789V20.6647H52.5004Z" fill="#FEFEFE"/>
<path d="M60.1703 20.6652V20.0189C59.6687 20.5216 59.1952 20.737 58.3354 20.737C57.4755 20.737 56.8587 20.506 56.4288 20.0751C56.0269 19.6598 55.812 19.0542 55.812 18.3954C55.812 17.2026 56.6282 16.2253 58.3914 16.2253H60.1266V15.8507C60.1266 15.0327 59.7248 14.6736 58.7372 14.6736C58.0643 14.6736 57.706 14.8609 57.3042 15.3199L56.1297 14.1553C56.8618 13.3498 57.5628 13.0938 58.8088 13.0938C60.9148 13.0938 61.9896 13.9836 61.9896 15.7351V20.6621H60.1703V20.6652ZM60.1266 17.5055H58.7092C57.9646 17.5055 57.6063 17.8084 57.6063 18.3672C57.6063 18.8856 57.9646 19.2133 58.7372 19.2133C59.1952 19.2133 59.5254 19.1572 59.84 18.8543C60.055 18.667 60.1266 18.3798 60.1266 17.9052V17.5023V17.5055Z" fill="#FEFEFE"/>
<path d="M70.2296 20.7495C68.7402 20.7495 66.8897 19.9439 66.8897 16.9153C66.8897 13.8868 68.7376 13.0938 70.2296 13.0938C71.2606 13.0938 72.0362 13.4091 72.6934 14.0991L71.4322 15.3636C71.0457 14.9484 70.7158 14.7735 70.2262 14.7735C69.7812 14.7735 69.438 14.9327 69.1673 15.2606C68.8806 15.6196 68.7529 16.1223 68.7529 16.9123C68.7529 17.7022 68.8806 18.2205 69.1673 18.5796C69.438 18.9105 69.7839 19.0666 70.2262 19.0666C70.7125 19.0666 71.0424 18.8949 71.4322 18.4765L72.6934 19.7254C72.0335 20.4154 71.2606 20.7464 70.2296 20.7464V20.7495Z" fill="#FEFEFE"/>
<path d="M74.055 20.6647V13.1807H75.9335V20.6647H74.055ZM78.513 20.6647L75.9494 16.7432L78.4006 13.1807H80.5784L77.943 16.6713L80.7527 20.6647H78.513Z" fill="#FEFEFE"/>
<path d="M86.5537 20.6647V14.8323H84.7623V16.6277C84.7623 19.8311 83.887 20.6647 82.3697 20.6647H81.4817V19.0131H81.7125C82.3418 19.0131 82.9584 18.8975 82.9584 16.2124V13.1807H88.4195V20.6647H86.5537Z" fill="#FEFEFE"/>
<path d="M94.2139 20.6652V20.0189C93.7123 20.5216 93.2387 20.737 92.3793 20.737C91.5193 20.737 90.9026 20.506 90.4729 20.0751C90.0705 19.6598 89.8557 19.0542 89.8557 18.3954C89.8557 17.2026 90.6718 16.2253 92.4352 16.2253H94.1707V15.8507C94.1707 15.0327 93.7689 14.6736 92.7811 14.6736C92.1079 14.6736 91.7501 14.8609 91.3483 15.3199L90.1736 14.1553C90.906 13.3498 91.6064 13.0938 92.8529 13.0938C94.9589 13.0938 96.0332 13.9836 96.0332 15.7351V20.6621H94.2139V20.6652ZM94.1707 17.5055H92.7532C92.0082 17.5055 91.6503 17.8084 91.6503 18.3672C91.6503 18.8856 92.0082 19.2133 92.7811 19.2133C93.2387 19.2133 93.5693 19.1572 93.884 18.8543C94.0988 18.667 94.1707 18.3798 94.1707 17.9052V17.5023V17.5055Z" fill="#FEFEFE"/>
<path d="M103.286 22.5037V20.6647H99.0145V22.5037H97.2518V19.0131H98.0114C98.3979 18.3231 98.7438 17.4176 98.7438 15.4662V13.1807H104.105V19.0131H105.052V22.5037H103.286ZM102.239 14.8323H100.535V15.8096C100.535 17.3177 100.336 18.2512 99.9617 19.0131H102.239V14.8323Z" fill="#FEFEFE"/>
<path d="M107.875 17.5053C107.875 18.4825 108.448 19.1725 109.51 19.1725C110.327 19.1725 110.728 18.929 111.202 18.4701L112.333 19.5753C111.572 20.3497 110.843 20.7524 109.494 20.7524C107.732 20.7524 106.039 19.9469 106.039 16.9183C106.039 14.4767 107.357 13.0967 109.292 13.0967C111.37 13.0967 112.544 14.5891 112.544 16.7153V17.5053H107.871H107.875ZM110.541 15.4227C110.342 14.9763 109.925 14.6484 109.295 14.6484C108.666 14.6484 108.248 14.9794 108.049 15.4227C107.921 15.6943 107.89 15.8973 107.878 16.2283H110.716C110.7 15.8973 110.672 15.6975 110.545 15.4227H110.541Z" fill="#FEFEFE"/>
<path d="M132.273 20.0751C131.859 20.5059 131.198 20.7495 130.467 20.7495C129.734 20.7495 129.133 20.5497 128.659 20.0033V23.4065H126.797V13.1811H128.604V13.8837C129.12 13.3092 129.663 13.0938 130.467 13.0938C131.198 13.0938 131.856 13.3373 132.273 13.7682C132.99 14.5019 133.046 15.6633 133.046 16.9154C133.046 18.1674 132.99 19.3413 132.273 20.0751ZM129.925 14.7735C128.806 14.7735 128.663 15.7071 128.663 16.9154C128.663 18.1237 128.806 19.0698 129.925 19.0698C131.043 19.0698 131.186 18.1205 131.186 16.9154C131.186 15.7102 131.043 14.7735 129.925 14.7735Z" fill="white"/>
<path d="M137.51 21.8699C137.109 22.9471 136.479 23.4061 135.345 23.4061H134.613V21.7263H135.043C135.588 21.7263 135.788 21.5827 135.974 21.0519L136.289 20.1339L133.737 13.1807H135.7L137.248 17.8047L138.741 13.1807H140.703L137.507 21.8699H137.51Z" fill="white"/>
<path d="M120.348 20.952C121.613 20.952 122.638 19.9246 122.638 18.6572C122.638 17.3898 121.613 16.3623 120.348 16.3623C119.084 16.3623 118.059 17.3898 118.059 18.6572C118.059 19.9246 119.084 20.952 120.348 20.952Z" fill="white"/>
<path fill-rule="evenodd" clip-rule="evenodd" d="M120.348 17.093C119.486 17.093 118.788 17.7934 118.788 18.6573C118.788 19.5212 119.486 20.2216 120.348 20.2216C121.21 20.2216 121.909 19.5212 121.909 18.6573C121.909 17.7934 121.21 17.093 120.348 17.093ZM117.33 18.6573C117.33 16.9864 118.681 15.6318 120.348 15.6318C122.015 15.6318 123.367 16.9864 123.367 18.6573C123.367 20.3282 122.015 21.6828 120.348 21.6828C118.681 21.6828 117.33 20.3282 117.33 18.6573Z" fill="#3B4254"/>
</g>
<defs>
<clipPath id="clip0_1_496">
<rect width="149" height="32" fill="white"/>
</clipPath>
</defs>
</svg>
